<svg width="360" height="118" viewBox="0 0 360 118" fill="none" xmlns="http://www.w3.org/2000/svg">
<path fill-rule="evenodd" clip-rule="evenodd" d="M86.0643 0.973136C84.4416 2.72529 84.45 4.53863 86.0906 6.48891C86.9918 7.56074 87.0005 7.63831 87.0005 14.5293V21.4877L47.2336 21.5004L7.46672 21.5135L3.82672 23.1204L0.186732 24.7268L0.0935478 52.243L0 79.7593H180H360L359.993 52.1713L359.985 24.5833L356.367 23.0355L352.748 21.4877H320.2C291.105 21.4877 287.603 21.4272 287.18 20.9173C285.988 19.4806 284.913 19.3025 277.428 19.3025H270.168L270.608 17.5725L271.048 15.8426L279.761 15.6605C287.626 15.4962 288.595 15.4074 289.71 14.75C291.614 13.6275 292.309 12.398 293.239 8.50547C294.4 3.64125 294.373 2.53736 293.06 1.1312L292.004 0H272.648H253.292L252.228 1.06455C250.793 2.50094 250.754 4.55538 252.132 6.19354L253.1 7.34441L251.905 12.504C249.655 22.2186 249.984 21.2921 248.742 21.4155L247.635 21.5255L249.046 15.5884C249.823 12.323 250.613 8.87222 250.802 7.92057C251.375 5.03831 250.621 2.65464 248.601 0.953833L247.469 0H239.355C231.84 0 231.176 0.0528085 230.333 0.716012C228.937 1.81443 228.437 3.32913 228.953 4.89409C229.188 5.60646 229.673 6.39458 230.03 6.64551C230.648 7.07891 230.62 7.36589 229.475 12.3827C228.812 15.2872 228.261 18.0325 228.251 18.483C228.233 19.2846 228.141 19.3025 224.007 19.3025C220.768 19.3025 219.823 19.1958 219.958 18.8454C220.054 18.5941 220.822 15.3899 221.664 11.7246L223.195 5.06089L222.347 3.35025C221.88 2.40953 220.942 1.27105 220.261 0.819808C219.073 0.0320491 218.713 0 211.046 0C206.271 0 202.787 0.150414 202.368 0.375124C201.44 0.871889 200.568 2.61275 200.568 3.96793C200.568 4.58707 200.938 5.48773 201.423 6.05296C202.234 6.99587 202.253 7.13208 201.787 8.68028C201.517 9.57839 201.276 10.738 201.25 11.257C201.225 11.776 201.073 11.1929 200.912 9.96117C200.398 6.01145 198.051 2.62696 194.649 0.931253L192.781 0H167.895C151.522 0 142.769 0.128198 142.308 0.375124C140.761 1.20331 139.997 4.26002 140.995 5.62576C141.421 6.20811 141.208 6.9172 139.312 11.2493C138.118 13.9761 136.759 17.1082 136.292 18.2099L135.443 20.213L135.389 14.3858C135.359 11.1809 135.299 8.31281 135.254 8.01235C135.209 7.71188 135.145 6.26529 135.111 4.79757C135.054 2.37457 134.951 2.03113 133.984 1.06455L132.921 0H125.317C118.161 0 117.667 0.0437037 116.915 0.744784C116.144 1.46298 114.769 4.20393 109.364 15.7956L106.839 21.2116L106.657 12.5178C106.535 6.68557 106.329 3.57096 106.033 3.05452C105.791 2.63133 105.007 1.77109 104.292 1.14249L102.991 0H94.9783H86.966L86.0643 0.973136ZM87.6376 2.32795C86.5954 3.11935 86.8277 4.6264 88.0926 5.28086L89.1845 5.84573L89.1867 29.9647C89.1878 45.3816 89.324 54.5703 89.5635 55.4334C89.7953 56.2685 90.3843 57.1018 91.1083 57.6186C92.2425 58.4278 92.4813 58.4497 98.8305 58.3277C102.434 58.2585 105.527 58.1124 105.704 58.0032C105.984 57.8302 107.95 53.8324 111.393 46.4352C112.847 43.31 116.025 36.5836 117.157 34.2346L118.122 32.2315L118.304 43.7037C118.498 55.8825 118.527 56.0773 120.353 57.5148C121.249 58.2199 121.777 58.2712 128.091 58.2661C131.817 58.2629 135.074 58.1288 135.327 57.9682C135.862 57.6277 159.436 6.8247 159.436 6.00999C159.436 5.70916 159.693 5.46296 160.007 5.46296C160.386 5.46296 160.509 5.6782 160.373 6.10614C159.323 9.41778 148.516 53.6368 148.516 54.6238C148.516 56.2 149.227 57.2966 150.622 57.875C151.388 58.1922 155.969 58.2782 167.836 58.1984C183.564 58.0924 184.053 58.0677 185.723 57.2959C187.749 56.3592 190.86 53.5578 191.429 52.1575C192.386 49.8007 195.836 34.8333 195.836 33.0389C195.836 31.1371 194.914 29.2269 193.563 28.332C193.229 28.1106 193.378 27.8254 194.12 27.2682C195.619 26.1428 196.341 24.4136 197.647 18.8214C199.174 12.2866 199.129 9.0423 197.474 6.38038C195.794 3.6773 194.271 2.64517 191.286 2.18883C189.142 1.86068 179.346 1.84065 157.798 2.11999C157.398 2.12509 154.166 2.05262 150.616 1.95902C146.371 1.84685 143.91 1.92333 143.427 2.18191C142.414 2.72383 142.445 4.51969 143.478 5.24408C144.057 5.6498 144.164 5.91894 143.883 6.26638C143.674 6.52569 142.52 9.0321 141.319 11.8364C136.934 22.074 133.872 28.9617 133.554 29.2997C133.362 29.5033 133.228 24.225 133.228 16.4617C133.228 3.76325 133.202 3.25083 132.5 2.54938C131.827 1.87525 131.291 1.82135 125.311 1.82645C121.758 1.82973 118.646 1.96193 118.396 2.12072C118.147 2.27951 116.451 5.59553 114.629 9.49026C112.806 13.3846 110.299 18.7015 109.056 21.3056C107.814 23.9096 106.479 26.8162 106.09 27.765C105.701 28.7137 105.219 29.5532 105.019 29.63C104.782 29.7211 104.614 25.492 104.538 17.5255C104.471 10.4211 104.264 4.76917 104.044 4.06189C103.435 2.10324 102.25 1.81917 94.7472 1.83264C89.9424 1.84102 88.1104 1.96885 87.6376 2.32795ZM203.571 2.26531C202.41 2.82581 202.472 4.46907 203.687 5.3548L204.621 6.03585L201.681 18.4051C200.065 25.2083 198.579 31.4302 198.378 32.2315C198.179 33.0327 196.876 38.5019 195.483 44.3851C193.125 54.3474 192.986 55.1643 193.453 56.2831C193.729 56.9441 194.285 57.6616 194.69 57.8783C195.147 58.1234 198.237 58.2716 202.884 58.2716C209.181 58.2716 210.433 58.1824 210.916 57.6995C211.231 57.3844 211.488 56.8363 211.488 56.4812C211.488 55.7714 210.404 54.6296 209.731 54.6296C209.496 54.6296 209.309 54.5065 209.316 54.3565C209.322 54.2064 210.432 49.4944 211.782 43.8858L214.236 33.6883L220.324 33.5885C225.54 33.5029 226.412 33.567 226.412 34.0354C226.412 34.3362 225.428 38.5601 224.225 43.4222C223.022 48.2842 221.887 52.8979 221.704 53.6751C221.272 55.5015 221.711 56.6225 223.218 57.5418C224.298 58.2002 225.056 58.2691 231.259 58.2701C235.287 58.2709 238.398 58.1165 238.812 57.8947C240.032 57.2413 239.512 55.0532 238.018 54.555C237.734 54.4603 238.662 49.9766 240.908 40.592C246.401 17.641 248.587 8.2691 248.806 6.73765C249.058 4.97567 248.148 2.96275 246.796 2.2868C246.17 1.97359 243.845 1.83155 239.334 1.83155C232.065 1.83155 231.041 2.06464 230.845 3.76325C230.747 4.60928 230.914 4.8482 231.846 5.20038C232.461 5.43273 232.964 5.82024 232.964 6.06134C232.964 6.3028 232.227 9.8031 231.326 13.8395C230.425 17.8759 229.688 21.2484 229.688 21.3332C229.688 21.4181 226.886 21.4877 223.461 21.4877H217.233L217.469 20.5484C219.101 14.0445 220.735 6.45977 220.736 5.39122C220.736 3.74686 219.853 2.68268 218.077 2.18919C216.309 1.69789 204.62 1.75944 203.571 2.26531ZM253.712 2.54938C253.312 2.95 252.984 3.40525 252.984 3.56076C252.984 4.23161 254.176 5.46296 254.825 5.46296C255.214 5.46296 255.532 5.60937 255.532 5.78783C255.532 5.96665 254.787 9.28558 253.877 13.1628C252.966 17.0404 251.83 21.9338 251.353 24.037C249.063 34.1239 245.964 47.4477 245.324 49.9559C244.285 54.0294 244.368 55.7473 245.668 57.1404L246.724 58.2716H253.984C260.731 58.2716 261.289 58.2213 261.889 57.5578C262.814 56.5351 262.363 55.0532 260.979 54.5706C260.386 54.3634 259.9 53.977 259.9 53.7115C259.9 53.446 260.382 51.2084 260.971 48.7395C261.56 46.2702 262.564 42.0375 263.201 39.3333C263.838 36.6292 264.523 34.212 264.722 33.9614C264.994 33.6213 267.183 33.5062 273.395 33.5062C282.086 33.5062 283.166 33.3423 283.86 31.9183C284.301 31.0143 285.744 24.2097 285.744 23.0359C285.744 22.5992 285.427 22.0722 285.04 21.8646C284.613 21.6359 281.031 21.4877 275.94 21.4877C271.322 21.4877 267.544 21.4032 267.544 21.3005C267.544 21.1974 267.979 19.4019 268.51 17.311L269.477 13.5092L278.859 13.401C290.098 13.2717 289.904 13.3387 290.918 9.25207C291.261 7.86922 291.648 5.8115 291.78 4.67921C291.993 2.84256 291.938 2.57815 291.271 2.22088C290.757 1.94591 284.891 1.82099 272.482 1.82099C254.925 1.82099 254.421 1.84065 253.712 2.54938ZM88.8202 3.58953C88.8202 3.66091 89.2031 4.02038 89.6705 4.38822L90.5208 5.05725L90.753 30.1166L90.9856 55.1759L91.9255 55.9954C92.8151 56.7711 93.1729 56.8148 98.6241 56.8148C102.919 56.8148 104.484 56.6939 104.778 56.3392C104.995 56.0777 106.226 53.5782 107.512 50.7852C108.799 47.9921 110.789 43.7401 111.934 41.3364C114.596 35.7496 119.217 25.8409 119.492 25.1296C119.608 24.8292 119.716 31.1957 119.732 39.2772C119.757 52.2995 119.829 54.0877 120.367 54.9975C120.7 55.5623 121.314 56.1611 121.732 56.3286C122.149 56.4958 125.202 56.5843 128.516 56.5253L134.543 56.4178L146.079 31.4758C152.425 17.7575 157.614 6.16987 157.611 5.72519C157.599 3.92022 157.319 3.83573 150.714 3.64198C145.133 3.47809 143.513 3.64525 145.03 4.22797C145.315 4.33723 145.634 4.65117 145.739 4.92504C145.844 5.19928 144.368 8.99714 142.457 13.3646C140.547 17.732 138.531 22.3708 137.979 23.6728C137.426 24.9748 135.844 28.6274 134.464 31.7897L131.954 37.5393L131.636 20.5906L131.317 3.64198H125.241H119.165L116.849 8.64969C115.575 11.4041 113.32 16.1977 111.838 19.3025C110.356 22.4073 107.906 27.6517 106.394 30.9568C104.883 34.2619 103.523 37.103 103.373 37.2702C103.223 37.4373 103.073 30.4192 103.039 21.6745C103.006 12.8846 102.827 5.37556 102.639 4.88134C102.452 4.38967 102.092 3.91512 101.839 3.82626C101.283 3.63178 88.8195 3.40488 88.8202 3.58953ZM159.8 3.69369C159.8 3.82189 160.207 4.02948 160.705 4.1544C161.235 4.28733 161.696 4.72619 161.818 5.21531C161.941 5.70297 160.345 12.7677 157.972 22.2361C150.876 50.5626 149.972 54.2374 149.972 54.7775C149.972 55.0681 150.23 55.5634 150.544 55.8785C151.047 56.3814 153.073 56.4506 167.3 56.4506C184.822 56.4506 184.595 56.4736 187.295 54.4129C188.003 53.8728 188.912 52.9678 189.315 52.4018C190.16 51.2145 194.365 35.1309 194.375 33.052C194.381 31.3942 192.462 29.0466 190.527 28.3466C188.95 27.7759 188.956 27.4576 190.548 27.1589C191.875 26.9095 193.777 25.5292 194.402 24.3604C194.969 23.3006 196.919 15.132 197.159 12.8092C197.281 11.6398 197.188 10.058 196.946 9.16285C196.396 7.12844 193.996 4.49493 192.242 4.00071C190.8 3.59427 159.8 3.30072 159.8 3.69369ZM255.168 3.70862C255.168 3.8452 255.496 4.06117 255.897 4.18827C257.451 4.68212 257.392 5.28196 254.592 17.3165C246.311 52.9103 246.007 54.3317 246.457 55.4188C246.692 55.9863 247.07 56.4564 247.295 56.4637C252.646 56.6342 260.628 56.5606 260.628 56.3406C260.628 56.18 260.143 55.8796 259.551 55.6727C258.959 55.4662 258.382 55.0084 258.271 54.6559C258.158 54.3029 258.47 52.309 258.962 50.2247C259.455 48.1404 260.536 43.5671 261.365 40.0617C262.194 36.5563 263.108 33.3193 263.396 32.8688C263.916 32.0567 263.998 32.0494 272.579 32.0494C279.297 32.0494 281.389 31.9387 281.913 31.5548C282.369 31.2212 282.801 30.0073 283.242 27.8218C283.601 26.0409 283.987 24.2144 284.099 23.7639L284.302 22.9444H274.807C265.74 22.9444 265.321 22.9142 265.524 22.2721C265.642 21.9021 266.149 19.9766 266.652 17.9928C267.155 16.009 267.732 13.767 267.936 13.0106L268.305 11.635L277.918 11.6663C284.033 11.6864 287.793 11.5574 288.25 11.3131C288.743 11.049 289.094 10.2711 289.37 8.83288C289.591 7.68056 289.922 6.08756 290.106 5.29252C290.289 4.49784 290.397 3.80586 290.347 3.75524C290.123 3.53199 255.168 3.48537 255.168 3.70862ZM205.209 4.25164C206.605 5.22551 207.128 2.56468 198.172 40.0104C196.287 47.8945 194.744 54.6347 194.744 54.9891C194.744 55.3431 194.949 55.8016 195.199 56.0081C195.725 56.4408 209.669 56.7799 209.669 56.3596C209.668 56.2095 209.454 56.0864 209.192 56.0864C208.93 56.0864 208.427 55.8755 208.075 55.6181C207.474 55.1781 207.567 54.6005 209.615 46.0579C210.814 41.0574 212.074 35.86 212.414 34.5077L213.033 32.0494H220.815C225.095 32.0494 228.595 32.1725 228.593 32.3225C228.592 32.4726 227.363 37.5069 225.863 43.5092C224.363 49.5116 223.136 54.7094 223.136 55.0597C223.136 55.4101 223.423 55.8497 223.773 56.0373C224.538 56.4459 237.697 56.7507 237.696 56.3596C237.696 56.2095 237.471 56.0864 237.195 56.0864C236.919 56.0864 236.493 55.8446 236.248 55.5492C235.763 54.9651 235.435 56.4379 244.41 18.911C247.193 7.2763 247.463 5.61665 246.783 4.34633C246.432 3.68823 245.958 3.64198 239.595 3.6438L232.782 3.64562L233.815 4.47235L234.847 5.29871L233.342 12.2097C232.514 16.0105 231.659 19.9806 231.441 21.0324L231.044 22.9444H223.146H215.249L217.191 14.5071C218.259 9.86648 219.132 5.78091 219.132 5.428C219.132 5.07509 218.875 4.52916 218.56 4.21413C218.08 3.73339 216.902 3.64489 211.189 3.66091C204.904 3.67876 204.452 3.72319 205.209 4.25164ZM171.322 17.5725C170.586 20.6274 169.986 23.2496 169.988 23.3997C169.991 23.5497 172.589 23.6728 175.763 23.6728C181.332 23.6728 181.566 23.6426 182.466 22.8082C183.88 21.4975 184.976 19.0453 185.186 16.721C185.584 12.335 185.091 12.0185 177.861 12.0185H172.66L171.322 17.5725ZM173.668 14.841C173.473 15.5924 173.048 17.2721 172.725 18.5741C172.402 19.8761 172.054 21.228 171.951 21.5787C171.779 22.1614 172.149 22.216 176.274 22.216C180.49 22.216 180.836 22.1621 181.56 21.3915C183.115 19.7355 184.216 15.6168 183.475 14.231C183.099 13.5285 182.753 13.4753 178.547 13.4753H174.024L173.668 14.841ZM175.046 17.8595L174.474 20.0585L177.416 19.9537C180.65 19.8386 180.855 19.6798 181.45 16.8441L181.698 15.6605H178.658H175.619L175.046 17.8595ZM5.37372 25.0244L2.55273 26.3242V51.767V77.2099H180.002H357.452V51.7255V26.2408L356.418 25.7054C355.848 25.4112 354.497 24.8335 353.415 24.4216C351.483 23.6874 350.849 23.6732 319.711 23.6732C289.799 23.6728 287.967 23.7093 287.797 24.3102C287.698 24.6609 287.509 25.6431 287.377 26.4935L287.137 28.0396L321.293 28.1324L355.45 28.2253V44.0679V59.9105L301.214 60.0926C251.003 60.2612 153.821 60.2823 48.3256 60.1479L4.73672 60.0926V44.0679V28.0432H45.8686H87.0005V25.858V23.6728L47.5976 23.6987L8.19472 23.7249L5.37372 25.0244ZM247.047 23.946C246.962 24.096 246.779 24.8452 246.641 25.6107C246.502 26.3763 246.295 27.2485 246.18 27.5494C246.014 27.9809 246.225 28.0716 247.177 27.9787C248.316 27.8677 248.41 27.7482 248.848 25.858C249.104 24.7563 249.32 23.8141 249.329 23.7639C249.368 23.5312 247.185 23.7056 247.047 23.946ZM152.67 25.9341C152.301 26.7936 151.939 27.62 151.866 27.7701C151.792 27.9201 151.963 28.0432 152.247 28.0432C152.563 28.0432 152.915 27.3756 153.157 26.3136C153.375 25.3627 153.505 24.5364 153.446 24.4777C153.387 24.4191 153.038 25.0743 152.67 25.9341ZM196.995 27.1313C196.767 27.6328 196.721 28.0432 196.894 28.0432C197.196 28.0432 197.74 26.5493 197.519 26.3275C197.459 26.2681 197.224 26.6294 196.995 27.1313ZM339.949 32.0115C338.231 32.572 337.136 33.5328 336.553 34.9921C336.086 36.159 335.977 37.9807 335.982 44.5304C335.988 52.2616 336.025 52.6921 336.811 54.0833C337.993 56.1735 339.767 56.9237 343.126 56.754C346.115 56.6028 347.291 55.9666 348.418 53.8896C349.043 52.7369 349.094 51.873 349 44.0027C348.904 35.8906 348.853 35.3177 348.132 34.3515C347.711 33.7862 346.85 33.0218 346.219 32.6521C344.939 31.9019 341.394 31.5399 339.949 32.0115ZM22.2087 32.4376C20.4669 33.1686 19.3447 34.6159 18.9152 36.6856C18.6619 37.9075 18.5519 41.4734 18.6277 46.0094C18.7383 52.6101 18.8257 53.4828 19.4914 54.6169C20.566 56.4462 22.1676 57.2515 24.7811 57.2763C27.2756 57.2996 28.4589 56.6498 29.6707 54.5914C30.343 53.4496 30.3987 52.7001 30.3987 44.7963C30.3987 35.3086 30.2818 34.7444 27.9806 33.1048C26.671 32.1718 23.6691 31.825 22.2087 32.4376ZM35.8587 32.7359C33.1654 33.9767 32.9638 34.7273 32.8247 44.0257C32.693 52.8352 32.9299 54.3598 34.6851 56.0096C36.365 57.5887 40.2252 57.7348 42.4114 56.3017C44.4301 54.9782 44.5946 54.1117 44.5946 44.7963C44.5946 34.9349 44.4458 34.3595 41.5061 32.8688C39.5554 31.8793 37.8075 31.8385 35.8587 32.7359ZM53.9913 32.5826C52.4199 33.2662 51.6926 34.8206 51.6926 37.4941V39.6975H54.0397H56.3864L56.4967 37.7855C56.5982 36.018 56.6754 35.8735 57.5166 35.8735C58.388 35.8735 58.4313 35.9791 58.5351 38.3646C58.661 41.2581 58.3105 41.8827 56.5622 41.8827C55.3483 41.8827 55.3326 41.9035 55.3326 43.5147C55.3326 44.9944 55.4258 45.1689 56.3336 45.3845C58.3105 45.8543 58.609 46.4436 58.6031 49.8605C58.597 53.2639 58.3403 54.0429 57.2909 53.8419C56.6932 53.7275 56.5931 53.3076 56.5014 50.5284L56.3962 47.3457H54.0444H51.6926L51.6934 50.3503C51.6937 53.8936 52.3467 55.5215 54.1962 56.5901C55.8644 57.5541 59.1688 57.5541 60.837 56.5901C62.8456 55.4294 63.3395 53.977 63.3399 49.2297C63.3406 45.1361 63.3322 45.096 62.2544 44.0176L61.1679 42.9305L62.1634 42.0732C63.0934 41.2716 63.1586 41.025 63.1586 38.2979C63.1586 34.9768 62.5795 33.7979 60.4028 32.6875C58.8973 31.9194 55.6376 31.8658 53.9913 32.5826ZM166.187 39.0351C165.245 42.905 164.395 46.3576 164.297 46.7083C164.133 47.2958 164.565 47.3457 169.8 47.3457C174.801 47.3457 175.656 47.2568 176.937 46.6024C178.666 45.7199 178.815 45.4132 179.998 40.3025C181.133 35.4044 181.137 34.5368 180.035 33.2534L179.157 32.2315L173.528 32.1153L167.899 31.9995L166.187 39.0351ZM298.643 33.1667C298.055 33.7811 296.632 34.7164 295.481 35.2456C293.577 36.12 293.388 36.3112 293.388 37.3579C293.388 38.4312 293.49 38.5226 294.888 38.7102C295.713 38.8209 296.573 39.0962 296.799 39.322C297.074 39.5963 297.247 42.5059 297.32 48.0916L297.43 56.4506H300.141H302.852V44.25V32.0494H301.282C300.005 32.0494 299.513 32.2577 298.643 33.1667ZM308.473 35.2361C307.948 36.989 306.869 40.4715 306.075 42.9753C305.141 45.922 304.607 48.3265 304.561 49.7924L304.49 52.0569L307.928 52.1596L311.367 52.2623L311.269 54.3565L311.171 56.4506L314.019 56.4513L316.866 56.4521L316.743 54.2662C316.622 52.1254 316.639 52.0802 317.562 52.0802C318.448 52.0802 318.504 51.9735 318.504 50.2848C318.504 48.6998 318.408 48.4754 317.685 48.3727L316.866 48.2562V40.1528V32.049L313.147 32.0494H309.427L308.473 35.2361ZM320.324 33.6311C320.324 34.5012 320.217 37.2053 320.086 39.6404L319.848 44.0679H322.634C325.154 44.0679 325.42 44.0002 325.42 43.3577C325.42 42.4265 326.472 41.8357 327.322 42.2906C327.895 42.5976 327.968 43.2302 327.968 47.8803C327.968 52.9438 327.941 53.1324 327.177 53.375C325.966 53.7596 325.42 52.6837 325.42 49.9165V47.5278H322.644H319.868L320.06 50.3237C320.294 53.7322 321.023 55.1024 323.151 56.1334C324.419 56.7478 325.235 56.8669 327.417 56.7569C330.486 56.6018 331.745 55.9265 332.79 53.8754C333.632 52.2245 333.719 42.9192 332.911 40.9846C331.967 38.7244 328.906 37.9246 326.594 39.3348C325.939 39.7347 325.316 40.0617 325.211 40.0617C325.106 40.0617 325.069 39.1192 325.129 37.9676L325.238 35.8735L328.787 35.7693L332.336 35.6651V33.8573V32.0494H326.33H320.324V33.6311ZM12.4266 33.7327C11.751 34.4509 10.4406 35.392 9.51458 35.8239C8.03674 36.513 7.83072 36.749 7.82926 37.7531C7.82817 38.8067 7.93955 38.9123 9.2383 39.0864C10.014 39.1906 10.8337 39.4608 11.0598 39.687C11.3411 39.9685 11.4707 42.7331 11.4707 48.455V56.8123L13.9277 56.8137L16.3847 56.8148V44.6142V32.4136L15.0197 32.4201C13.9292 32.4256 13.4075 32.6896 12.4266 33.7327ZM167.687 39.6065C166.948 42.7612 166.345 45.4784 166.347 45.6445C166.35 45.8109 168.479 45.8929 171.077 45.8266C176.993 45.6766 177.172 45.5429 178.321 40.4259C179.259 36.2457 179.316 34.3985 178.517 34.0914C178.2 33.9698 175.936 33.8704 173.486 33.8704H169.031L167.687 39.6065ZM341.873 35.4C341.311 35.9623 341.245 53.0119 341.803 53.3571C342.005 53.4817 342.497 53.4806 342.895 53.3538C343.592 53.1328 343.62 52.7908 343.62 44.4805C343.62 36.1976 343.478 34.963 342.528 34.963C342.408 34.963 342.113 35.1596 341.873 35.4ZM23.8663 36.0239C23.4841 36.6426 23.6006 53.2544 23.9901 53.6441C24.6311 54.2855 25.3755 53.6234 25.6099 52.203C25.9029 50.4297 25.8396 38.4188 25.5298 36.9704C25.2976 35.8844 24.3024 35.3181 23.8663 36.0239ZM37.8617 36.5989C37.3864 37.8496 37.3864 51.743 37.8617 52.9937C38.0998 53.6204 38.4478 53.9118 38.8627 53.8317C39.4473 53.7191 39.4986 52.9896 39.4986 44.7963C39.4986 36.6029 39.4473 35.8735 38.8627 35.7609C38.4478 35.6808 38.0998 35.9722 37.8617 36.5989ZM310.312 40.6991C309.964 42.2513 309.453 44.3298 309.177 45.3178C308.395 48.12 308.474 48.4383 309.95 48.4383C310.651 48.4383 311.224 48.2704 311.224 48.065C311.224 47.8599 311.268 45.4835 311.322 42.7841C311.376 40.085 311.314 37.8765 311.183 37.8765C311.052 37.8765 310.66 39.1469 310.312 40.6991ZM66.0964 42.8191C65.7819 43.1341 65.5246 43.7897 65.5246 44.2759C65.5246 44.7624 65.3608 45.1605 65.1606 45.1605C64.9604 45.1605 64.7966 45.4784 64.7966 45.8674C64.7966 46.2564 64.9604 46.6756 65.1606 46.7994C65.3739 46.9312 65.5246 49.049 65.5246 51.9196V56.8148H67.3446H69.1646V51.8869C69.1646 47.8421 69.2625 46.921 69.7106 46.7491C70.0109 46.6337 70.2566 46.229 70.2566 45.8499C70.2566 45.3572 69.9967 45.1605 69.3466 45.1605C68.7857 45.1605 68.4366 44.9536 68.4366 44.6211C68.4366 44.3247 68.8461 43.979 69.3466 43.8534C69.9159 43.7103 70.2566 43.3668 70.2566 42.936C70.2566 42.3533 69.9796 42.2469 68.4624 42.2469C67.3169 42.2469 66.4619 42.4538 66.0964 42.8191ZM268.244 45.4966C267.529 46.2119 267.18 46.929 267.18 47.6818C267.18 48.7839 267.21 48.8025 269 48.8025H270.82V47.5278C270.82 46.496 270.959 46.2531 271.548 46.2531C272.151 46.2531 272.276 46.496 272.276 47.6676C272.276 49.0432 272.22 49.1048 270.247 49.9064C267.659 50.9571 267.179 51.4589 267.185 53.1076C267.194 55.3507 267.529 56.0249 268.855 56.4626C269.856 56.7933 270.311 56.7591 271.268 56.2813C272.009 55.9112 272.495 55.8333 272.575 56.0715C272.644 56.2798 273.529 56.4506 274.541 56.4506H276.382L276.188 51.4429C276.082 48.6888 275.886 46.1704 275.753 45.847C275.376 44.9263 273.891 44.4321 271.503 44.4321C269.563 44.4321 269.185 44.5556 268.244 45.4966ZM277.918 50.4414V56.4506L279.738 56.4513L281.558 56.4521L281.462 51.8078C281.363 47.0532 281.591 45.9781 282.613 46.3707C283.108 46.5605 283.196 47.3398 283.196 51.5227V56.4506H285.016H286.836V51.5227C286.836 47.4167 286.93 46.5583 287.398 46.3787C287.707 46.26 288.075 46.2789 288.217 46.4203C288.358 46.5616 288.474 48.8757 288.474 51.5627V56.4481L290.294 56.4499L292.114 56.4517L292.004 50.9115C291.94 47.6796 291.732 45.1758 291.504 44.9016C290.951 44.234 288.299 44.313 287.518 45.0203C286.919 45.5618 286.821 45.5618 286.28 45.0203C285.533 44.2729 283.076 44.246 282.468 44.9784C282.219 45.2789 281.854 45.5247 281.657 45.5247C281.46 45.5247 281.393 45.2789 281.508 44.9784C281.678 44.5359 281.357 44.4321 279.818 44.4321H277.918V50.4414ZM71.3486 50.8056V56.8148L73.0776 56.8155L74.8066 56.8163L74.7101 52.172C74.6115 47.4174 74.8393 46.3423 75.8618 46.7349C76.3565 46.9247 76.4446 47.704 76.4446 51.8869V56.8148H78.2646H80.0846V51.716C80.0846 46.8602 80.1191 46.6173 80.8126 46.6173C81.506 46.6173 81.5406 46.8602 81.5406 51.716V56.8148H83.3606H85.1806V51.6152C85.1806 45.5549 84.9083 44.7963 82.7316 44.7963C82.0079 44.7963 81.1165 45.0676 80.7503 45.399C80.1308 45.9599 80.0383 45.9599 79.4188 45.399C78.5885 44.647 76.3223 44.6124 75.7166 45.3426C75.4672 45.6431 75.1021 45.8889 74.9052 45.8889C74.7079 45.8889 74.641 45.6431 74.7563 45.3426C74.9252 44.9023 74.6151 44.7963 73.1573 44.7963H71.3486V50.8056ZM271.457 51.2473C270.653 52.1414 270.602 54.4679 271.38 54.7666C272.118 55.0499 272.344 54.3656 272.207 52.2649C272.097 50.5918 272.075 50.5608 271.457 51.2473ZM46.2326 54.4475V56.8148H48.0526H49.8726V54.4475V52.0802H48.0526H46.2326V54.4475ZM66.9813 61.6404C66.7902 62.0913 66.1419 65.246 65.5406 68.6512C64.5265 74.3935 64.4912 74.8757 65.0554 75.2978C66.8255 76.6228 68.2382 75.276 68.6346 71.8853C68.7959 70.5072 68.8992 69.2565 68.8643 69.1065C68.8293 68.9564 68.9236 68.8402 69.0736 68.8483C69.2236 68.8566 70.2919 70.4955 71.4472 72.4902C72.6026 74.4853 73.767 76.1173 74.0349 76.1173C74.4517 76.1173 77.1726 72.4837 77.1726 71.9268C77.1726 71.8194 77.617 71.0597 78.1601 70.2384C79.1404 68.7565 79.1491 68.7521 79.3952 69.6717C79.5313 70.1812 79.7595 71.6056 79.9022 72.837C80.1199 74.714 80.3026 75.1398 81.0331 75.4726C81.9937 75.9108 83.6015 75.4089 83.9189 74.5727C84.0143 74.3203 83.5571 71.1642 82.9026 67.5586C81.8096 61.5366 81.6479 60.994 80.9196 60.8895C80.355 60.8086 79.9739 61.0708 79.5972 61.7999C79.306 62.3634 78.0025 64.5052 76.7005 66.5596L74.333 70.2952L71.8778 66.1954C70.5274 63.9407 69.1751 61.8091 68.873 61.4583C68.1236 60.5886 67.3981 60.6582 66.9813 61.6404ZM95.4075 61.6404C95.2353 62.0913 94.5874 65.246 93.9679 68.6512C92.9246 74.3859 92.8864 74.8761 93.4484 75.2978C94.9929 76.456 96.6491 75.3517 96.9861 72.94C97.6301 68.3318 97.3804 68.3726 99.8632 72.4728C101.274 74.8033 102.279 76.1024 102.62 76.0368C102.916 75.9796 104.137 74.3316 105.334 72.3737C106.734 70.0865 107.611 68.9743 107.788 69.2616C107.94 69.5075 108.177 70.9093 108.314 72.3773C108.505 74.4139 108.72 75.1296 109.224 75.3995C110.181 75.9119 110.84 75.8372 111.731 75.1154L112.518 74.4777L111.422 68.003C110.82 64.4418 110.228 61.3691 110.108 61.1746C109.423 60.0649 108.319 61.3964 103.518 69.1287L102.769 70.3342L99.9218 65.5778C96.9836 60.6691 96.0802 59.8814 95.4075 61.6404ZM147.801 61.5253C147.584 61.9318 147.424 64.8494 147.424 68.4192C147.424 73.5603 147.521 74.7053 147.996 75.1809C148.782 75.9669 149.828 75.8977 150.725 75.0003C151.397 74.3272 151.465 73.8866 151.362 70.8364C151.26 67.8354 151.312 67.4807 151.792 67.8853C158.426 73.475 161.315 75.7531 161.767 75.7531C162.837 75.7531 163.076 74.3688 163.076 68.2018C163.076 61.5792 162.97 61.1852 161.192 61.1852C159.523 61.1852 158.997 62.4289 159.136 66.045L159.254 69.1283L158.483 68.5256C158.059 68.1942 155.826 66.3251 153.522 64.3719C151.218 62.4187 149.073 60.821 148.755 60.821C148.438 60.821 148.009 61.1378 147.801 61.5253ZM273.841 61.2606C273.477 61.7238 271.321 65.344 267.85 71.3204C266.881 72.9888 266.088 74.4988 266.088 74.6765C266.088 75.241 267.581 75.823 268.461 75.6016C268.998 75.4668 269.733 74.651 270.456 73.3854L271.602 71.3827H274.309H277.016L277.998 73.3851C279.022 75.4745 279.74 75.9687 281.215 75.5983C283.053 75.1365 282.751 74.0417 278.935 67.3274C276.96 63.8518 275.088 60.9587 274.777 60.8989C274.466 60.8388 274.045 61.0016 273.841 61.2606ZM15.2028 61.7377C10.3307 63.5281 8.32139 68.8577 11.1846 72.397C12.9038 74.5225 15.2716 75.5477 18.8093 75.6985C20.911 75.788 22.3397 75.6471 23.6112 75.2246C25.5182 74.5909 25.8487 74.1787 25.8487 72.4342C25.8487 71.1442 25.0846 70.7519 23.7535 71.359C20.9136 72.6534 17.1531 72.42 15.0546 70.8186C14.0067 70.0184 13.8367 69.6706 13.8367 68.3249C13.8367 66.5677 14.366 65.9059 16.4772 65.0231C18.3052 64.259 20.9762 64.3326 22.8854 65.1994C24.9798 66.1503 25.4304 66.1099 25.8778 64.9324C26.4704 63.3729 26.0252 62.4275 24.3887 61.7723C22.5643 61.0421 17.152 61.0217 15.2028 61.7377ZM40.8607 61.7293C37.0162 63.401 34.8649 66.8973 35.7174 70.088C36.2409 72.0477 38.6032 74.2835 41.077 75.1602C44.0399 76.2105 48.3879 75.8849 50.997 74.4179C57.0227 71.0294 56.5385 64.4185 50.0663 61.7129C48.3992 61.0158 42.4769 61.0268 40.8607 61.7293ZM122.657 61.9427C122.4 62.4231 122.295 64.4123 122.371 67.3802C122.501 72.456 122.74 73.1341 124.994 74.8186C126.555 75.9844 131.195 76.098 133.411 75.0243C136.106 73.719 136.547 72.4524 136.424 66.3695L136.322 61.3673L135.064 61.2475C133.12 61.0625 132.864 61.7144 132.864 66.8554C132.864 70.4915 132.759 71.3816 132.278 71.7804C131.545 72.389 128.229 72.405 127.131 71.8048C126.348 71.3765 126.312 71.1536 126.312 66.7082C126.312 63.578 126.17 61.9165 125.876 61.6222C125.137 60.8833 123.116 61.0843 122.657 61.9427ZM174.45 61.6055C174.121 61.9343 173.996 63.8821 173.996 68.6847V75.3099L174.937 75.5462C176.247 75.8751 177.235 75.4839 177.466 74.545C177.574 74.108 177.615 70.9639 177.558 67.5586L177.454 61.3673L176.179 61.2595C175.477 61.2005 174.699 61.356 174.45 61.6055ZM187.482 61.8808C186.449 63.8114 187.284 64.8272 189.903 64.8272H191.832V70.0691C191.832 74.513 191.92 75.3445 192.408 75.532C193.421 75.921 194.251 75.7709 194.87 75.087C195.366 74.5381 195.472 73.5766 195.472 69.624V64.8272H197.248C199.336 64.8272 199.939 64.2896 199.774 62.5746L199.658 61.3673L193.761 61.2671C188.222 61.1735 187.84 61.2107 187.482 61.8808ZM207.787 62.0848C207.355 63.0335 207.273 62.9118 211.928 68.2488C212.815 69.2656 212.916 69.6648 212.929 72.2098C212.944 74.8688 212.999 75.0655 213.854 75.4552C214.535 75.7655 214.994 75.7655 215.674 75.4552C216.532 75.064 216.584 74.8772 216.584 72.1832V69.3261L219.333 66.1157C222.541 62.3699 222.748 61.4307 220.406 61.2631C219.031 61.1644 218.861 61.2704 217.348 63.1766C214.906 66.2515 215.092 66.2355 212.924 63.5612C211.157 61.3819 210.881 61.1852 209.597 61.1852C208.461 61.1852 208.119 61.3549 207.787 62.0848ZM247.597 61.6222C247.289 61.93 247.16 64.0172 247.16 68.6851C247.16 75.748 247.162 75.7531 248.984 75.7531C250.216 75.7531 250.8 74.7377 250.8 72.5948V70.5815L253.185 72.8941C254.496 74.1659 255.878 75.3499 256.256 75.5251C257.389 76.0514 258.768 75.493 259.043 74.3968C259.26 73.5326 259.034 73.1877 257.141 71.4938L254.993 69.5712L255.811 68.9979C256.863 68.2604 257.716 66.6008 257.716 65.2904C257.716 62.7651 255.077 61.2056 250.782 61.1932C249.12 61.1885 247.861 61.3578 247.597 61.6222ZM291.559 62.1194C291.364 62.6332 291.204 65.6535 291.204 68.8311C291.204 76.161 291.027 75.9162 296.088 75.5772C300.932 75.253 302.247 74.8761 303.968 73.3213C305.532 71.9068 306.737 68.8093 306.314 67.2877C305.027 62.6544 302.419 61.1852 295.484 61.1852C291.987 61.1852 291.907 61.2041 291.559 62.1194ZM317.138 61.6055C316.809 61.9343 316.684 63.885 316.684 68.6997C316.684 75.0972 316.712 75.3485 317.438 75.5794C318.62 75.9545 319.928 75.4646 320.149 74.564C320.26 74.1164 320.303 70.9639 320.246 67.5586L320.142 61.3673L318.867 61.2595C318.165 61.2005 317.387 61.356 317.138 61.6055ZM335.992 61.7595C332.52 63.2666 330.215 66.701 330.709 69.6295C331.062 71.7192 333.684 74.324 336.313 75.1977C339.325 76.1989 343.638 75.8587 346.2 74.4179C352.253 71.0141 351.686 64.0321 345.168 61.7049C343.283 61.0319 337.59 61.0657 335.992 61.7595ZM16.1386 63.1661C13.7122 63.9254 12.1871 65.0592 11.4791 66.6296C10.7165 68.3216 10.9003 70.3244 11.9475 71.728C13.7057 74.0836 18.8916 75.2534 22.6848 74.1503C23.8245 73.8188 24.7567 73.3709 24.7567 73.1545C24.7567 72.924 24.4935 72.869 24.1197 73.022C21.3664 74.1484 17.5313 74.1783 15.2927 73.0908C13.5379 72.2382 12.3807 70.4296 12.3807 68.5387C12.3807 67.3113 12.6264 66.7425 13.6412 65.6182C14.3696 64.8119 15.502 64.0423 16.3225 63.7961C18.2298 63.2247 21.3355 63.2844 23.1187 63.9272C24.8652 64.5566 24.7567 64.5445 24.7567 64.113C24.7567 63.5834 21.2066 62.6387 19.3214 62.6664C18.4071 62.6799 16.9747 62.9046 16.1386 63.1661ZM42.0466 63.1515C38.3804 64.3115 36.7687 66.0425 36.7687 68.8202C36.7687 70.8306 37.7929 72.244 40.0949 73.4113C44.1469 75.4657 49.4344 74.8306 52.3205 71.9428C53.7172 70.5458 53.8766 70.2082 53.8766 68.6512C53.8766 67.0954 53.7168 66.7567 52.3267 65.3658C49.8857 62.9235 45.6502 62.0112 42.0466 63.1515ZM66.8634 68.0572C65.7171 74.2253 65.7124 74.2963 66.4346 74.2963C66.7349 74.2963 66.982 74.2551 66.9835 74.2052C67.0108 73.361 68.1305 65.7402 68.244 65.6266C68.331 65.5399 68.8603 66.2304 69.4205 67.1613C69.9803 68.0926 71.2714 70.1601 72.2892 71.756L74.1397 74.6576L77.0022 70.0774C79.2033 66.556 79.9211 65.6517 80.1075 66.1638C80.2411 66.5305 80.5625 68.5103 80.8224 70.5633C81.2079 73.612 81.4052 74.2963 81.8995 74.2963C82.4535 74.2963 82.436 73.8855 81.6902 69.4561C81.2421 66.7938 80.8206 64.1337 80.7532 63.5448C80.644 62.5903 80.2786 63.0368 77.3902 67.6566C75.6081 70.5072 74.1048 72.8395 74.0495 72.8395C73.9938 72.8395 73.0011 71.2418 71.8425 69.2886C70.6843 67.3354 69.3131 65.0606 68.7955 64.2332L67.8538 62.7287L66.8634 68.0572ZM95.4184 67.4785C94.9649 70.1266 94.504 72.7441 94.3945 73.2948C94.2481 74.0326 94.3402 74.2963 94.7446 74.2963C95.3977 74.2963 95.5422 73.758 96.1366 69.1065C96.3863 67.1533 96.6848 65.5585 96.8005 65.5617C96.9159 65.5654 97.6614 66.6718 98.4563 68.0201C99.2517 69.3687 100.503 71.4122 101.238 72.5613L102.573 74.6503L105.434 70.104C107.007 67.6034 108.417 65.557 108.568 65.5566C108.718 65.5559 108.841 66.0694 108.841 66.698C108.841 67.3263 109.034 69.2929 109.27 71.0684C109.634 73.8035 109.802 74.2963 110.369 74.2963C110.871 74.2963 110.996 74.0909 110.869 73.4769C110.71 72.7026 109.236 64.0904 109.09 63.0816C109.053 62.8226 107.569 64.9197 105.793 67.7418C104.018 70.564 102.504 72.8126 102.431 72.739C102.357 72.6654 100.97 70.4045 99.3485 67.7149C97.7269 65.0249 96.3648 62.788 96.3218 62.7439C96.2789 62.6999 95.8723 64.8304 95.4184 67.4785ZM148.88 68.4444C148.88 73.534 148.955 74.2963 149.455 74.2963C149.956 74.2963 150.015 73.6841 149.91 69.5614C149.844 66.957 149.83 64.8264 149.879 64.8268C149.996 64.8272 156.489 70.2712 159.345 72.7638L161.62 74.7494V68.8778C161.62 63.9014 161.537 63.0062 161.074 63.0062C160.618 63.0062 160.528 63.755 160.528 67.5586C160.528 70.0625 160.406 72.1089 160.255 72.106C160.105 72.1035 158.984 71.2429 157.763 70.194C156.543 69.1451 154.045 67.0058 152.212 65.4397L148.88 62.5924V68.4444ZM272.094 66.3943C267.638 73.9707 267.471 74.2963 268.043 74.2963C268.34 74.2963 269.098 73.3949 269.728 72.2932L270.874 70.2901H274.245H277.617L278.63 72.2932C279.312 73.6422 279.864 74.2963 280.321 74.2963C280.967 74.2963 280.963 74.2304 280.23 72.9306C279.807 72.1796 278.406 69.6801 277.118 67.3765C275.83 65.073 274.664 63.0743 274.527 62.9348C274.39 62.7957 273.295 64.3522 272.094 66.3943ZM337.25 63.1515C333.61 64.3031 331.976 65.9838 331.974 68.5784C331.971 71.2556 333.454 72.9189 336.86 74.0596C340.537 75.2913 344.838 74.4955 347.394 72.1104C348.813 70.7858 348.898 70.591 348.898 68.6512C348.898 66.7115 348.813 66.5167 347.394 65.1921C344.944 62.9057 340.715 62.0549 337.25 63.1515ZM123.764 67.7036C123.972 73.0504 124.243 73.6393 126.825 74.3382C128.852 74.887 132.378 74.529 133.557 73.6542C134.923 72.6414 135.369 70.9624 135.392 66.7392C135.411 63.2422 135.367 63.0062 134.684 63.0062C133.999 63.0062 133.956 63.2491 133.956 67.1773C133.956 69.4714 133.774 71.7476 133.552 72.236C133 73.4477 131.768 73.9321 129.235 73.9321C127.465 73.9321 126.903 73.7697 125.977 72.9892L124.856 72.0463V67.5262C124.856 63.4643 124.792 63.0062 124.219 63.0054C123.636 63.0047 123.598 63.4017 123.764 67.7036ZM175.088 68.6512C175.088 73.7846 175.146 74.2963 175.725 74.2963C176.304 74.2963 176.362 73.7846 176.362 68.6512C176.362 63.5179 176.304 63.0062 175.725 63.0062C175.146 63.0062 175.088 63.5179 175.088 68.6512ZM188.192 63.3704C188.192 63.5758 189.224 63.7346 190.558 63.7346H192.924V69.0154C192.924 73.4667 193.01 74.2963 193.47 74.2963C193.93 74.2963 194.016 73.4667 194.016 69.0154V63.7346H196.382C197.717 63.7346 198.748 63.5758 198.748 63.3704C198.748 63.1442 196.746 63.0062 193.47 63.0062C190.194 63.0062 188.192 63.1442 188.192 63.3704ZM209.538 63.8256C209.936 64.2765 211.111 65.62 212.149 66.812L214.036 68.9786V71.6376C214.036 73.9266 214.125 74.2963 214.673 74.297C215.23 74.2978 215.295 73.9813 215.191 71.7917L215.072 69.2853L216.777 67.3292C217.714 66.2537 218.969 64.8406 219.565 64.1898C220.546 63.1176 220.578 63.0062 219.913 63.0062C219.453 63.0062 218.4 63.9272 217.102 65.4645C215.961 66.8168 214.909 67.9698 214.765 68.027C214.621 68.0842 213.572 66.9781 212.434 65.5687C211.042 63.8442 210.111 63.0062 209.589 63.0062H208.813L209.538 63.8256ZM248.252 68.6512C248.252 73.4262 248.336 74.2963 248.798 74.2963C249.235 74.2963 249.344 73.75 249.344 71.5648C249.344 69.1917 249.429 68.8333 249.99 68.8333C250.346 68.8333 251.857 70.0625 253.348 71.5648C255.096 73.3253 256.346 74.2963 256.866 74.2963C257.541 74.2963 257.339 73.9845 255.626 72.3843C252.616 69.5719 252.256 69.2143 252.256 69.0318C252.256 68.9408 252.842 68.7565 253.559 68.6217C257.084 67.9604 257.146 63.9301 253.642 63.2287C253.03 63.1063 251.567 63.0062 250.391 63.0062H248.252V68.6512ZM292.478 68.6512V74.3691L296.482 74.234C302.634 74.0261 304.854 72.5456 304.854 68.6512C304.854 64.7569 302.634 63.2764 296.482 63.0685L292.478 62.9333V68.6512ZM317.776 68.6512C317.776 73.4262 317.86 74.2963 318.322 74.2963C318.784 74.2963 318.868 73.4262 318.868 68.6512C318.868 63.8762 318.784 63.0062 318.322 63.0062C317.86 63.0062 317.776 63.8762 317.776 68.6512ZM42.5067 63.7331C38.0372 65.0796 36.5637 69.183 39.5405 71.9924C42.5664 74.8477 48.5386 74.5694 51.4804 71.4362C52.3402 70.5203 52.5418 69.9827 52.5418 68.6046C52.5418 67.0863 52.3839 66.756 51.0713 65.5308C48.9685 63.5681 45.4828 62.8365 42.5067 63.7331ZM293.833 68.5161L293.934 73.75L296.972 73.6506C301.862 73.4903 303.398 72.2958 303.398 68.6512C303.398 65.0329 302.055 63.9731 296.927 63.5477L293.732 63.2826L293.833 68.5161ZM337.432 63.8609C335.5 64.5562 334.98 64.9197 333.981 66.2741C331.401 69.7737 334.85 73.9423 340.31 73.9241C346.764 73.9026 350.069 68.8275 345.974 65.2296C343.937 63.4407 340.244 62.8488 337.432 63.8609ZM249.344 65.9198V68.1049H251.472C253.849 68.1049 254.804 67.4607 254.804 65.8564C254.804 64.3916 253.753 63.7346 251.408 63.7346H249.344V65.9198ZM42.4671 64.9943C39.1987 66.1601 38.4088 68.3621 40.5058 70.4602C43.7025 73.6586 51.3286 72.3413 51.3286 68.5908C51.3286 65.482 46.5439 63.5397 42.4671 64.9943ZM272.777 66.8947C272.001 68.2615 271.312 69.5027 271.245 69.6528C271.178 69.8028 272.448 69.9259 274.066 69.9259C275.74 69.9259 277.008 69.7726 277.008 69.5701C277.008 69.1793 274.927 65.1903 274.472 64.7095C274.316 64.5445 273.553 65.5279 272.777 66.8947ZM337.67 64.9943C334.402 66.1601 333.612 68.3621 335.709 70.4602C337.977 72.7291 342.598 72.8912 345.341 70.7978C346.292 70.072 346.532 69.6284 346.532 68.5966C346.532 65.5046 341.721 63.5492 337.67 64.9943ZM250.8 65.7147C250.8 66.5352 250.904 66.5862 252.165 66.3918C253.809 66.1379 253.86 66.1019 253.587 65.3891C253.449 65.0293 252.908 64.8272 252.085 64.8272C250.966 64.8272 250.8 64.9415 250.8 65.7147ZM295.208 68.4691V72.1111L296.573 72.1071C300.348 72.0962 302.488 70.9242 302.488 68.8679C302.488 66.1507 300.83 64.8272 297.427 64.8272H295.208V68.4691ZM273.749 67.3452C273.385 68.0266 273.442 68.1049 274.31 68.1049C275.174 68.1049 275.225 68.0372 274.79 67.4676C274.522 67.1169 274.269 66.7753 274.229 66.7079C274.188 66.6409 273.972 66.9275 273.749 67.3452ZM3.18973 82.3378C2.61861 82.6707 2.55273 83.4213 2.55273 89.5981C2.55273 96.036 2.59895 96.5112 3.2567 96.8638C3.644 97.071 5.84364 97.2407 8.14485 97.2407C11.4631 97.2407 12.447 97.1224 12.9009 96.6686C13.619 95.9497 13.619 95.6182 12.9009 94.8993C12.4662 94.4648 11.5479 94.3272 9.07887 94.3272H5.82872V88.7385C5.82872 83.7869 5.75301 83.0811 5.16297 82.5472C4.39893 81.8552 4.07643 81.821 3.18973 82.3378ZM18.5665 82.2846C14.6069 83.4897 12.5991 87.1106 13.4283 91.5512C14.2353 95.8728 18.2848 98.329 22.7489 97.2043C26.7787 96.1889 28.9503 91.639 27.6468 86.9423C26.6648 83.4034 22.28 81.1545 18.5665 82.2846ZM34.8915 82.2806C30.7321 83.6183 28.6941 87.7636 29.9946 92.2399C31.4601 97.2837 37.2597 99.1743 41.1698 95.8823C43.4753 93.9411 43.7793 91.0494 41.6772 91.0494C41.0067 91.0494 40.6059 91.4056 40.0508 92.4942C39.2093 94.1447 38.3928 94.6914 36.7687 94.6914C34.335 94.6914 33.1287 93.0619 33.1287 89.7747C33.1287 86.4492 34.3317 84.858 36.8458 84.858C38.3153 84.858 39.4936 85.6247 40.2379 87.0654C41.1053 88.7429 42.9566 88.2975 42.9566 86.4113C42.9566 83.7083 38.1337 81.2383 34.8915 82.2806ZM50.1176 82.3997C49.5039 82.8487 44.912 93.5587 44.544 95.399C44.4126 96.0567 44.5772 96.5484 45.0813 97.0051C46.102 97.9291 47.0542 97.326 47.8448 95.2548L48.4767 93.5988H51.3093H54.1416L54.7688 95.2417C55.495 97.1442 56.4286 97.8235 57.5166 97.2407C58.6152 96.6526 58.4259 95.4798 56.4708 90.7704C55.4953 88.4199 54.4725 85.8632 54.1984 85.0889C53.2589 82.4365 51.5798 81.3297 50.1176 82.3997ZM60.6314 82.7541C60.1734 83.4078 60.0646 84.7291 60.0646 89.6334C60.0646 97.6468 59.8011 97.3041 65.8496 97.1635C69.6786 97.0747 70.4215 96.9621 70.7618 96.4213C71.0537 95.9573 71.0537 95.6106 70.7622 95.1466C70.4353 94.6269 69.7306 94.4903 66.942 94.4065L63.5226 94.3042L63.6318 88.8708C63.7334 83.8 63.6908 83.3874 62.9948 82.691C62.032 81.7277 61.3368 81.7463 60.6314 82.7541ZM78.7097 82.5115C77.9221 83.0633 77.9006 83.2614 77.9006 89.9648C77.9006 96.4781 77.9399 96.8722 78.6286 97.2407C79.6995 97.8143 80.7361 97.1089 81.0157 95.6164C81.1449 94.9285 81.1929 92.8817 81.1223 91.0683C81.0521 89.255 81.0102 87.7712 81.0291 87.7712C81.0481 87.7716 82.4229 89.8271 84.0842 92.3394C87.6943 97.798 88.4238 98.3661 89.9125 96.8765C90.5845 96.2042 90.6405 95.6627 90.6405 89.8559C90.6405 84.7499 90.5335 83.4107 90.0738 82.7541C89.388 81.7744 88.7656 81.7277 87.9793 82.5971C87.5207 83.104 87.366 84.1974 87.2859 87.501L87.1825 91.7526L84.6346 87.8732C80.5672 81.6804 80.2738 81.4149 78.7097 82.5115ZM106.566 82.333C105.664 82.8655 105.74 83.5607 107.461 90.4539C108.729 95.5374 109.14 96.6919 109.842 97.1522C110.502 97.5845 110.884 97.6202 111.561 97.3114C112.463 96.9002 112.616 96.508 114.437 89.9568L115.298 86.8611L116.058 89.4105C116.476 90.8127 117.069 92.9432 117.376 94.1451C117.888 96.1467 118.917 97.6049 119.817 97.6049C120.004 97.6049 120.521 97.2364 120.966 96.7855C121.551 96.1926 122.214 94.2263 123.364 89.6749C124.898 83.6034 124.931 83.3586 124.302 82.6641C122.777 80.9771 121.918 82.1258 120.648 87.552L119.633 91.8852L118.956 89.373C117.385 83.5385 117.194 83.0414 116.278 82.4412C115.555 81.967 115.179 81.9248 114.488 82.2398C113.605 82.6423 113.495 82.9238 111.542 89.7747L110.919 91.9599L110.03 87.9537C108.764 82.242 108.219 81.3566 106.566 82.333ZM129.406 82.4918C127.433 83.1904 126.312 84.5532 126.312 86.254C126.312 86.9995 126.569 87.9759 126.882 88.4239C127.595 89.4418 129.72 90.5453 131.608 90.8778C134.398 91.3691 135.475 92.7735 134.047 94.0602C132.373 95.5698 129.919 95.0949 129.086 93.1005C128.174 90.9175 125.948 91.0261 125.948 93.2531C125.948 94.7008 127.939 96.6984 129.911 97.2298C135.089 98.6247 139.669 94.4029 137.262 90.4539C136.567 89.3136 135.13 88.5947 131.943 87.792C129.808 87.2541 128.939 86.5264 129.444 85.699C129.973 84.8314 131.44 84.3314 132.601 84.6231C133.116 84.752 133.885 85.4276 134.32 86.132C135.128 87.4398 136.023 87.7432 136.796 86.9704C138.025 85.7401 136.432 83.0935 134.027 82.3727C132.203 81.8261 131.215 81.8516 129.406 82.4918ZM160.507 82.2693C158.755 82.8396 158.075 83.3768 157.457 84.6803C156.137 87.4624 157.779 89.5922 162.187 90.8174C165.399 91.7104 166.113 92.5502 164.917 94.0281C163.964 95.206 161.404 95.2034 160.571 94.0234C158.863 91.6048 158.406 91.2206 157.73 91.6325C156.594 92.3233 156.702 94.089 157.967 95.5316C160.65 98.5875 166.693 97.96 168.357 94.4524C169.733 91.5512 167.904 89.07 163.591 87.9861C160.95 87.3222 160.164 86.8932 160.164 86.1141C160.164 84.6155 163.304 83.8754 164.334 85.1312C164.622 85.4815 165.163 86.1582 165.536 86.6342C166.953 88.4395 168.943 86.2707 167.663 84.3168C166.53 82.5869 162.806 81.5216 160.507 82.2693ZM188.833 82.4627C186.646 83.2435 185.782 83.9803 184.89 85.8235C183.728 88.2239 183.744 91.3535 184.928 93.727C186.138 96.1507 188.227 97.3627 191.247 97.3948C195.559 97.4403 198.304 94.9212 198.65 90.5992C198.988 86.388 197.301 83.5007 193.916 82.4947C191.679 81.8301 190.623 81.8232 188.833 82.4627ZM230.78 82.3724C229.192 82.824 228.27 83.6219 227.655 85.0736C226.486 87.8364 228.398 89.8687 233.265 91.0348C235.601 91.5946 236.429 92.7484 235.35 93.9407C233.85 95.5993 231.356 95.1845 230.228 93.0893C229.439 91.6226 228.466 91.1299 227.669 91.7923C226.728 92.5735 227.033 94.2926 228.345 95.6055C231.947 99.2096 239.15 97.2648 239.15 92.6883C239.15 90.2121 237.539 88.901 233.135 87.792C231 87.2541 230.131 86.5264 230.636 85.699C231.694 83.9646 234.324 84.1996 235.463 86.1302C236.234 87.4384 237.199 87.7596 237.987 86.9704C239.217 85.7401 237.623 83.0935 235.218 82.3727C233.551 81.8731 232.537 81.8731 230.78 82.3724ZM257.789 82.3815C257.549 82.6218 257.352 83.2607 257.352 83.8015C257.352 84.5841 259.262 92.8853 260.132 95.8848C260.235 96.2407 260.717 96.792 261.202 97.1104C262.006 97.6374 262.162 97.6377 262.96 97.1144C263.872 96.5167 264.3 95.4143 265.771 89.8767L266.614 86.7005L267.926 91.4791C268.892 94.9987 269.457 96.4355 270.07 96.9315C271.095 97.7623 271.272 97.7652 272.245 96.9676C272.833 96.4861 273.421 94.7464 274.652 89.8534C275.547 86.2908 276.28 83.3036 276.28 83.2151C276.28 82.7887 274.495 81.9539 273.994 82.1466C273.25 82.4317 273.108 82.8196 271.938 87.7323L270.951 91.8808L270.119 88.8249C268.634 83.3714 268.431 82.875 267.466 82.3301C266.647 81.8683 266.431 81.8749 265.653 82.3844C264.951 82.8444 264.516 83.8827 263.529 87.4486L262.287 91.934L261.185 87.2869C260.156 82.9496 259.681 81.9656 258.608 81.9499C258.398 81.947 258.029 82.1411 257.789 82.3815ZM295.989 82.5818C295.15 83.2891 290.476 94.6706 290.476 96.0057C290.476 97.0841 291.663 97.7747 292.628 97.2579C293.011 97.0528 293.557 96.1864 293.841 95.3327L294.357 93.7809L297.336 93.6749L300.316 93.5693L300.537 94.6713C300.756 95.7687 302.159 97.6049 302.778 97.6049C302.957 97.6049 303.409 97.267 303.783 96.8536C304.444 96.123 304.444 96.0491 303.798 94.2132C302.321 90.0162 299.464 83.5338 298.751 82.7639C297.841 81.7795 297.006 81.7245 295.989 82.5818ZM317.937 82.4612C317.281 82.9413 317.23 83.4675 317.23 89.7747C317.23 96.0819 317.281 96.6081 317.937 97.0881C318.864 97.767 319.094 97.743 319.96 96.8765C320.558 96.2778 320.688 95.6627 320.688 93.4167V90.6852H323.561H326.435L326.569 93.6312C326.677 96.0239 326.834 96.6737 327.405 97.091C328.328 97.7666 328.559 97.7422 329.424 96.8765C330.097 96.2035 330.152 95.6627 330.152 89.7747C330.152 83.8867 330.097 83.3459 329.424 82.6728C328.506 81.7543 328.153 81.7591 327.21 82.7027C326.568 83.3448 326.471 83.8182 326.573 85.7991L326.694 88.1373L323.691 88.1365L320.688 88.1358V85.6429C320.688 83.6904 320.544 83.0192 320.022 82.5472C319.208 81.8101 318.847 81.7955 317.937 82.4612ZM93.7553 83.1182C93.0145 84.1759 92.937 94.7179 93.6588 96.1481C94.1076 97.0368 94.2285 97.0612 98.6587 97.1639C101.155 97.2218 103.549 97.1821 103.977 97.0761C105.152 96.7848 105.391 95.7268 104.454 94.9678C103.825 94.4583 102.965 94.3272 100.246 94.3272H96.8285V92.5062V90.6852H100.242C104.026 90.6852 104.873 90.2926 104.121 88.8875C103.758 88.2094 103.382 88.1358 100.274 88.1358H96.8285V86.5097V84.8835L100.521 84.7797C103.495 84.696 104.287 84.5579 104.595 84.0692C104.871 83.6296 104.845 83.3033 104.498 82.8855C104.105 82.4121 103.15 82.3086 99.1705 82.3086C94.5725 82.3086 94.2925 82.3505 93.7553 83.1182ZM171.539 82.7198C171.209 83.056 171.084 85.0001 171.084 89.8217C171.084 95.3713 171.178 96.5542 171.656 97.0328C172.367 97.7437 172.544 97.7441 173.551 97.0379C174.253 96.5466 174.36 96.1409 174.36 93.9892V91.5072L177.276 91.3382C179.697 91.198 180.346 91.0243 181.102 90.3137C183.096 88.4395 182.94 84.8486 180.796 83.2541C179.935 82.6135 179.144 82.4718 175.882 82.3738C173.087 82.2897 171.867 82.3869 171.539 82.7198ZM201.504 82.8808C201.027 83.3586 200.932 84.5302 200.932 89.9568C200.932 95.3833 201.027 96.5549 201.504 97.0328C201.819 97.3474 202.299 97.6049 202.57 97.6049C203.739 97.6049 204.208 96.501 204.208 93.755C204.208 91.0934 204.224 91.0494 205.142 91.0494C206.659 91.0494 207.303 91.6073 209.08 94.4601C210.006 95.9475 211.032 97.2673 211.36 97.393C211.859 97.5845 213.672 96.7797 213.672 96.3663C213.672 95.7501 212.274 93.1654 211.292 91.9664L210.075 90.4801L211.154 90.0019C212.3 89.4946 213.308 87.9417 213.308 86.6856C213.308 85.0922 212.269 83.3863 210.967 82.8418C209.121 82.0701 202.286 82.0985 201.504 82.8808ZM213.745 82.7457C213.089 83.402 213.219 84.4203 214.012 84.8453C214.4 85.0525 215.464 85.2222 216.378 85.2222H218.04V90.8465C218.04 96.2458 218.073 96.4938 218.849 97.0379C219.857 97.7441 220.034 97.7437 220.744 97.0328C221.215 96.5619 221.316 95.4638 221.316 90.8414V85.2222H222.978C224.939 85.2222 226.048 84.7174 226.048 83.8255C226.048 82.4762 225.345 82.3086 219.678 82.3086C215.889 82.3086 214.046 82.4445 213.745 82.7457ZM278.113 83.013C277.896 83.4194 277.736 86.337 277.736 89.9069C277.736 95.0479 277.833 96.1929 278.308 96.6686C278.771 97.1311 279.803 97.2407 283.695 97.2407C288.655 97.2407 289.384 97.0463 289.384 95.7239C289.384 94.6728 288.175 94.3272 284.494 94.3272H281.012V92.5193V90.7114L284.523 90.6072C287.326 90.5242 288.11 90.3811 288.414 89.8963C288.691 89.4567 288.664 89.1304 288.318 88.7127C287.943 88.2615 287.096 88.1358 284.426 88.1358H281.012V86.4969V84.858H284.821C288.212 84.858 288.672 84.7808 289.007 84.1548C289.291 83.6241 289.243 83.3116 288.812 82.8801C288.349 82.4179 287.309 82.3086 283.365 82.3086C278.918 82.3086 278.457 82.3706 278.113 83.013ZM303.289 82.7457C302.09 83.9457 303.379 85.2222 305.79 85.2222H307.584V90.6852C307.584 95.6627 307.649 96.213 308.312 96.8765C309.178 97.743 309.407 97.767 310.336 97.0885C310.983 96.6154 311.042 96.0942 311.042 90.8971V85.223L312.927 85.2226C314.706 85.2222 315.956 84.6209 315.956 83.7654C315.956 83.5939 315.699 83.1958 315.384 82.8808C314.914 82.4106 313.823 82.3086 309.269 82.3086C305.443 82.3086 303.59 82.4441 303.289 82.7457ZM333.267 83.1182C332.811 83.7691 332.7 85.0718 332.7 89.7747C332.7 97.6312 332.386 97.2407 338.701 97.2407C342.64 97.2407 343.677 97.1315 344.14 96.6686C344.907 95.9012 344.862 95.5662 343.903 94.8942C343.312 94.4798 342.184 94.3272 339.717 94.3272H336.34V92.5193V90.7114L339.889 90.6072L343.438 90.5031V89.4105V88.3179L339.889 88.2137L336.34 88.1096V86.4965V84.8835L340.032 84.7797C343.007 84.696 343.799 84.5579 344.106 84.0692C344.383 83.6296 344.356 83.3033 344.009 82.8855C343.617 82.4121 342.662 82.3086 338.682 82.3086C334.084 82.3086 333.804 82.3505 333.267 83.1182ZM347.104 82.8808C346.627 83.3586 346.532 84.5306 346.532 89.9623C346.532 96.2753 346.556 96.4879 347.341 97.0379C348.349 97.7441 348.525 97.7437 349.236 97.0328C349.654 96.6143 349.808 95.7268 349.808 93.7328V91.0053L351.173 91.1186C352.436 91.2231 352.681 91.4485 354.455 94.1341C355.51 95.7304 356.624 97.1774 356.932 97.3496C357.589 97.7178 359.272 96.7571 359.272 96.0141C359.272 95.4299 356.608 91.246 355.995 90.8665C355.703 90.6863 355.91 90.4251 356.614 90.0839C359.624 88.6253 359.571 84.0979 356.53 82.8262C354.719 82.0694 347.875 82.1094 347.104 82.8808ZM18.4901 85.491C17.112 86.3461 16.6333 87.7487 16.823 90.3742C16.9645 92.3332 17.1309 92.7447 18.1465 93.653C19.9006 95.2209 22.5887 94.9226 23.8332 93.0219C25.2015 90.9328 24.788 86.9653 23.0608 85.6061C21.9015 84.6934 19.858 84.6421 18.4901 85.491ZM174.36 86.8159V88.8642H176.022C178.21 88.8642 179.094 88.3616 179.087 87.1215C179.078 85.5201 178.583 85.1181 176.396 84.9367L174.36 84.7677V86.8159ZM189.223 85.4152C187.962 86.1003 187.336 88.0396 187.549 90.6051C187.69 92.3088 187.899 92.7917 188.87 93.66C190.165 94.8174 191.651 94.9922 193.236 94.1724C195.77 92.8613 196.112 87.4442 193.776 85.6061C192.662 84.7284 190.642 84.6439 189.223 85.4152ZM204.208 86.679V88.5L206.119 88.4945C208.392 88.4883 209.808 87.8619 209.962 86.7963C210.135 85.5933 208.75 84.858 206.311 84.858H204.208V86.679ZM349.808 86.7213V88.5849L352.218 88.4312C354.04 88.3154 354.75 88.1103 355.13 87.591C355.793 86.6837 355.767 86.4496 354.904 85.5864C354.338 85.0197 353.691 84.858 351.992 84.858H349.808V86.7213ZM50.4612 88.0473C50.0845 89.1978 49.6983 90.3439 49.6033 90.5941C49.4791 90.9219 49.9593 91.0494 51.3199 91.0494C52.6922 91.0494 53.1563 90.9248 53.0158 90.5941C52.9095 90.3439 52.5273 89.1967 52.1666 88.0451C51.8058 86.8939 51.4287 85.9524 51.3286 85.9539C51.2285 85.955 50.8383 86.8972 50.4612 88.0473ZM296.467 88.0331C296.081 89.1912 295.71 90.3439 295.642 90.5941C295.555 90.9143 296.061 91.0494 297.346 91.0494H299.173L298.487 89.0532C297.346 85.7357 297.249 85.6866 296.467 88.0331ZM145.078 87.4985C143.653 88.7531 143.512 90.3053 144.694 91.7115C147.064 94.5286 151.472 91.7534 149.792 88.5025C148.814 86.6113 146.617 86.1433 145.078 87.4985ZM246.27 87.4985C244.845 88.7531 244.704 90.3053 245.886 91.7115C247.12 93.1785 249.152 93.3333 250.34 92.0509C251.736 90.5439 251.568 88.3714 249.981 87.4034C248.44 86.4634 247.416 86.4896 246.27 87.4985ZM84.3583 103.949C83.6055 104.219 82.7196 104.665 82.3894 104.938C81.4903 105.682 80.4646 108.18 80.4646 109.623C80.4646 111.312 81.5704 113.678 82.8178 114.66C84.0933 115.664 87.2863 115.753 88.8497 114.829C90.1681 114.05 91.251 111.917 90.7399 111.106C90.2241 110.288 89.0906 110.4 88.6349 111.314C87.8964 112.797 87.275 113.265 86.0462 113.265C84.1261 113.265 83.3606 112.239 83.3606 109.664C83.3606 107.031 84.0755 105.954 85.8569 105.903C86.8156 105.876 87.3318 106.15 88.2898 107.196C89.5052 108.524 90.3734 108.66 90.7847 107.588C91.101 106.763 90.254 105.298 89.0309 104.555C87.4217 103.578 85.9257 103.384 84.3583 103.949ZM96.1628 104.069C95.2499 104.849 91.5647 114.123 91.861 114.896C91.9779 115.201 92.4776 115.451 92.9716 115.451C93.6672 115.451 93.973 115.164 94.33 114.176C94.7883 112.909 94.8032 112.901 97.0163 112.901C99.2011 112.901 99.2528 112.925 99.8494 114.176C100.295 115.112 100.69 115.451 101.334 115.451C103.046 115.451 102.951 114.87 100.117 107.985C98.7756 104.726 97.9358 103.432 97.1634 103.432C97.0236 103.432 96.5734 103.719 96.1628 104.069ZM148.742 103.797C147.122 104.3 145.968 105.58 145.968 106.874C145.968 108.929 147.008 109.794 150.572 110.703C152.405 111.171 152.887 112.087 151.774 112.989C151.34 113.342 150.667 113.63 150.28 113.63C149.536 113.63 147.788 112.108 147.788 111.461C147.788 111.251 147.39 111.08 146.903 111.08C145.859 111.08 145.377 112.16 145.946 113.224C146.738 114.704 148.16 115.451 150.186 115.451C152.554 115.451 153.669 114.977 154.462 113.633C155.894 111.208 154.89 109.562 151.23 108.332C148.706 107.484 147.872 106.614 148.936 105.94C150.023 105.25 151.372 105.591 152.041 106.724C152.481 107.47 152.932 107.796 153.426 107.725C154.562 107.562 154.44 105.353 153.248 104.492C152.118 103.675 150.125 103.368 148.742 103.797ZM156.424 103.845C156.079 104.038 155.796 104.423 155.796 104.7C155.796 105.219 158.884 113.68 159.487 114.813C159.882 115.557 161.719 115.678 162.249 114.995C162.719 114.392 165.988 105.409 165.988 104.722C165.988 104.02 164.808 103.401 164.194 103.78C163.93 103.944 163.102 105.929 162.355 108.193L160.998 112.308L159.64 108.23C158.255 104.073 157.604 103.185 156.424 103.845ZM168.016 104.004C167.551 104.469 167.445 105.51 167.45 109.558C167.453 112.298 167.594 114.759 167.764 115.027C167.934 115.295 168.464 115.459 168.942 115.391C169.807 115.269 169.811 115.251 169.911 109.855C169.98 106.173 169.878 104.28 169.594 103.937C169.054 103.286 168.72 103.301 168.016 104.004ZM172.748 104.004C171.956 104.797 171.901 114.404 172.685 115.055C173.016 115.33 174.448 115.441 176.78 115.373C180.335 115.27 180.366 115.261 180.366 114.358C180.366 113.474 180.283 113.444 177.545 113.341L174.724 113.235V108.771C174.724 105.784 174.58 104.162 174.288 103.869C173.712 103.293 173.435 103.317 172.748 104.004ZM182.243 104.098C181.748 104.645 181.64 105.598 181.64 109.403C181.64 111.954 181.81 114.359 182.017 114.746C182.351 115.369 182.807 115.451 185.977 115.451C189.715 115.451 190.638 115.1 190.162 113.858C189.98 113.385 189.393 113.265 187.243 113.265H184.552V108.952C184.552 105.235 184.46 104.554 183.887 104.035C183.054 103.281 182.98 103.284 182.243 104.098ZM214.476 103.78C211.491 104.515 209.738 107.428 210.261 110.785C210.445 111.959 210.893 112.745 212.041 113.903C213.555 115.429 213.612 115.451 216.119 115.451C218.162 115.451 218.903 115.287 219.897 114.619C220.995 113.881 221.146 113.58 221.242 111.946C221.381 109.573 220.928 109.188 218.162 109.331C216.317 109.427 216.038 109.537 216.038 110.17C216.038 110.748 216.319 110.921 217.403 111.011C218.569 111.108 218.768 111.251 218.768 111.995C218.768 112.675 218.498 112.942 217.539 113.206C214.714 113.987 212.944 112.577 212.944 109.546C212.944 108.042 213.119 107.571 214.008 106.682C215.47 105.219 216.725 105.282 218.199 106.892C219.487 108.299 219.916 108.431 220.584 107.625C222.228 105.644 217.92 102.931 214.476 103.78ZM236.786 103.967C233.295 105.232 231.964 109.736 234.062 113.187C235.11 114.911 236.666 115.555 239.371 115.383C241.992 115.215 242.888 114.62 243.928 112.355C244.823 110.404 244.781 108.655 243.793 106.704C242.469 104.09 239.572 102.959 236.786 103.967ZM261.167 103.76C258.308 104.474 256.843 106.461 256.843 109.623C256.843 112.076 257.62 113.65 259.362 114.727C260.456 115.403 261.062 115.508 263.181 115.388C266.631 115.193 267.686 114.407 267.834 111.922C267.974 109.575 267.513 109.188 264.754 109.331C262.868 109.429 262.617 109.533 262.514 110.261C262.41 110.995 262.551 111.08 263.879 111.08C265.209 111.08 265.36 111.172 265.36 111.974C265.36 112.678 265.101 112.939 264.131 113.206C261.402 113.96 259.536 112.566 259.536 109.773C259.536 107.784 260.1 106.538 261.231 106.022C262.721 105.343 263.571 105.559 264.834 106.939C266.075 108.295 266.974 108.4 267.418 107.241C268.216 105.16 264.297 102.977 261.167 103.76ZM270.314 103.904C269.786 104.29 269.721 105.058 269.809 109.808L269.91 115.269H271.002H272.094L272.195 109.732C272.287 104.621 272.242 104.168 271.608 103.828C271.124 103.569 270.741 103.592 270.314 103.904ZM278.187 104.069C277.27 104.879 273.58 114.165 273.873 114.928C274.015 115.299 274.439 115.459 275.083 115.384C275.848 115.295 276.152 114.998 276.412 114.085C276.747 112.909 276.765 112.901 279.058 112.901C281.352 112.901 281.37 112.909 281.899 114.176C282.312 115.166 282.641 115.451 283.371 115.451C283.888 115.451 284.405 115.206 284.519 114.907C284.776 114.237 281.072 104.962 280.193 104.075C279.397 103.271 279.092 103.27 278.187 104.069ZM104.099 104.73C103.714 105.746 103.618 113.301 103.974 114.631C104.135 115.231 104.464 115.451 105.204 115.451C106.402 115.451 106.657 114.936 106.657 112.507C106.657 110.832 106.716 110.716 107.581 110.716C108.322 110.716 108.807 111.189 110.025 113.1C111.314 115.124 111.683 115.468 112.467 115.376C113.886 115.211 113.814 114.002 112.264 111.97C111.483 110.947 111.091 110.148 111.33 110.068C112.591 109.647 113.374 108.549 113.373 107.204L113.373 105.799L115.111 105.926L116.848 106.052V110.175C116.848 114.927 116.977 115.451 118.149 115.451C119.508 115.451 119.817 114.356 119.692 109.969L119.578 105.98L121.053 105.981C122.818 105.981 123.524 105.436 123.007 104.469C122.688 103.872 122.154 103.796 118.295 103.796C114.427 103.796 113.895 103.872 113.515 104.482C113.096 105.154 113.063 105.154 111.964 104.484C111.092 103.951 110.132 103.799 107.648 103.798C104.554 103.796 104.443 103.825 104.099 104.73ZM124.505 104.501C123.949 105.54 124.018 114.067 124.588 114.848C124.984 115.39 125.602 115.463 129.047 115.373C133.042 115.269 133.046 115.268 133.046 114.358C133.046 113.469 132.976 113.445 130.043 113.342L127.04 113.236V111.794V110.352H129.544C132.366 110.352 133.34 109.787 132.305 108.752C131.89 108.336 131.044 108.167 129.381 108.167H127.04V107.074V105.981H129.726C132.677 105.981 133.756 105.418 132.864 104.343C132.515 103.922 131.549 103.796 128.647 103.796C125.297 103.796 124.84 103.874 124.505 104.501ZM135.121 104.233C134.61 104.745 134.507 114.242 135.004 115.027C135.174 115.295 135.704 115.459 136.182 115.391C136.978 115.279 137.06 115.078 137.159 112.992C137.258 110.92 137.339 110.716 138.069 110.722C139.212 110.73 139.521 111.007 141.031 113.378C142.188 115.195 142.516 115.478 143.351 115.381C144.747 115.219 144.722 114.38 143.259 112.204L141.976 110.295L143.062 109.381C144.613 108.075 144.598 106.061 143.028 104.739C142.011 103.883 141.618 103.796 138.733 103.796C136.749 103.796 135.394 103.96 135.121 104.233ZM191.923 104.032C191.588 104.171 191.468 105.644 191.468 109.615C191.468 114.197 191.555 115.042 192.044 115.23C192.361 115.351 194.225 115.451 196.185 115.451C198.911 115.451 199.858 115.322 200.204 114.904C200.566 114.468 200.566 114.248 200.204 113.812C199.872 113.411 198.989 113.265 196.884 113.265H194.016V111.809V110.352H196.707C198.857 110.352 199.444 110.233 199.626 109.759C200.058 108.632 199.15 108.167 196.52 108.167H194.016V107.074V105.981L196.655 105.976C199.578 105.97 200.34 105.683 200.145 104.663C200.027 104.05 199.614 103.971 196.196 103.91C194.096 103.872 192.174 103.927 191.923 104.032ZM223.584 104.222C222.907 104.899 222.96 114.487 223.644 115.054C223.978 115.332 225.502 115.44 228.103 115.372C232.047 115.269 232.054 115.267 232.054 114.358C232.054 113.464 231.996 113.446 228.869 113.342L225.684 113.237V111.794V110.352H228.426C230.537 110.352 231.216 110.225 231.378 109.801C231.808 108.681 230.804 108.167 228.188 108.167H225.684V107.074V105.981L228.323 105.976C231.246 105.97 232.008 105.683 231.813 104.663C231.696 104.053 231.266 103.967 227.857 103.876C225.193 103.804 223.897 103.91 223.584 104.222ZM246.466 104.301C246.183 104.643 246.08 106.49 246.149 110.037L246.25 115.269H247.342C248.429 115.269 248.435 115.257 248.543 112.97C248.65 110.709 248.669 110.673 249.635 110.785C250.388 110.872 250.959 111.428 252.074 113.164C253.369 115.179 253.651 115.421 254.619 115.349C256.14 115.236 256.151 114.447 254.663 112.234L253.4 110.356L254.466 109.289C255.899 107.856 255.899 106.293 254.468 104.861C253.451 103.843 253.262 103.796 250.145 103.796C247.81 103.796 246.766 103.939 246.466 104.301ZM106.657 107.033V108.531H108.083C110.057 108.531 110.661 108.228 110.661 107.239C110.661 106.193 110.539 106.116 108.386 105.794L106.657 105.535V107.033ZM137.232 107.027V108.531H138.98C140.816 108.531 141.6 108.079 141.6 107.023C141.6 106.191 141.365 106.072 139.123 105.774L137.232 105.523V107.027ZM237.826 105.982C236.568 106.484 235.876 107.811 235.876 109.721C235.876 111.874 237.02 113.265 238.788 113.265C240.579 113.265 241.7 111.877 241.7 109.66C241.7 106.955 239.831 105.181 237.826 105.982ZM248.616 107.074V108.531H250.392C252.341 108.531 253.186 107.92 252.822 106.773C252.676 106.313 252.136 105.997 251.245 105.849C248.72 105.432 248.616 105.48 248.616 107.074ZM96.3644 108.597C96.0306 109.641 95.8184 110.555 95.8927 110.629C95.9669 110.704 96.5876 110.712 97.2722 110.649L98.5171 110.534L97.744 108.617L96.9709 106.699L96.3644 108.597ZM278.396 108.693L277.833 110.716H279.225H280.616L280.099 109.25C279.149 106.556 279.004 106.509 278.396 108.693ZM202.232 113.473C201.464 114.242 201.51 114.574 202.479 115.266C203.247 115.814 203.259 115.88 202.661 116.328C201.812 116.965 201.842 118 202.71 118C203.633 118 204.572 116.482 204.572 114.99C204.572 113.073 203.395 112.311 202.232 113.473Z" fill="#303030"/>
</svg>
