<svg width="207" height="205" viewBox="0 0 207 205" fill="none" xmlns="http://www.w3.org/2000/svg">
<path fill-rule="evenodd" clip-rule="evenodd" d="M183.586 0.824884C179.496 2.05288 172.007 8.52688 171.267 11.4729C170.71 13.6939 171.981 15.3619 181.497 24.9089C188.668 32.1019 193.103 35.8089 194.538 35.8089C197.592 35.8089 205.658 26.6049 206.49 22.1729C209.13 8.09788 197.005 -3.20312 183.586 0.824884ZM36.8975 15.6229C19.7015 20.1179 4.56655 35.7669 0.934547 52.8089C0.0965466 56.7419 -0.146454 73.8339 0.0805465 112.809L0.397547 167.309L2.74755 173.133C7.80555 185.672 18.9825 196.478 32.5575 201.953L38.3975 204.309L94.7985 204.599C132.522 204.792 152.928 204.529 156.419 203.805C171.367 200.701 184.568 190.323 191.563 176.175L195.398 168.418L195.65 124.363L195.902 80.3089L183.9 92.5289L171.898 104.75L171.892 131.529C171.889 146.891 171.446 159.897 170.852 162.034C169.269 167.734 163.991 173.895 158.016 177.016L152.67 179.809H98.4055C38.1485 179.809 40.4995 180.051 32.7185 173.036C24.6825 165.79 24.9445 167.919 24.9195 109.673L24.8975 58.0369L27.6905 52.6909C30.8115 46.7159 36.9726 41.4379 42.6726 39.8549C44.8356 39.2539 58.3555 38.8179 74.9125 38.8149L103.428 38.8089L115.898 26.3089L128.368 13.8089L85.8825 13.8669C49.2505 13.9159 42.5025 14.1579 36.8975 15.6229ZM118.258 63.2489C97.1595 84.3899 79.8975 102.389 79.8975 103.245C79.8975 105.735 100.812 126.809 103.284 126.809C104.746 126.809 117.369 114.844 143.789 88.4179C177.39 54.8089 182.095 49.7309 181.572 47.6459C180.8 44.5719 160.75 24.8089 158.403 24.8089C157.387 24.8089 140.109 41.3529 118.258 63.2489ZM68.2875 118.574C66.7465 119.593 64.6515 123.872 59.3205 136.891L54.7335 148.089L56.7715 150.127L58.8096 152.166L69.1035 147.822C84.9625 141.131 88.8975 138.983 88.8975 137.021C88.8975 135.202 72.1075 117.797 70.3775 117.824C69.8385 117.833 68.8975 118.17 68.2875 118.574Z" fill="#0083BF"/>
</svg>
