<svg width="206" height="242" viewBox="0 0 206 242" fill="none" xmlns="http://www.w3.org/2000/svg">
<path fill-rule="evenodd" clip-rule="evenodd" d="M78.314 1.94602C74.201 4.45402 73 6.81602 73 12.392V16.92L38.912 17.208L4.825 17.496L2.412 20.302C0.132 22.953 0 23.815 0 35.995C0 48.179 0.121 48.968 2.223 50.439C4.198 51.823 15.419 51.996 103 51.996C190.581 51.996 201.802 51.823 203.777 50.439C205.879 48.968 206 48.179 206 35.995C206 23.815 205.868 22.953 203.588 20.302L201.175 17.496L167.588 17.208L134 16.919V12.908C134 10.702 133.317 7.57702 132.483 5.96302C129.643 0.471025 127.315 -0.00397527 103.3 2.47313e-05C83.478 0.00302473 81.211 0.180025 78.314 1.94602ZM14.42 74.881C8.184 78.684 8.123 75.478 15.995 158.152C21.507 216.041 23.542 234.104 24.789 236.216C28.293 242.149 26.218 241.996 103.433 241.996C179.793 241.996 178.951 242.053 182.472 236.679C183.739 234.745 185.721 217.545 191.437 158.846C198.448 86.865 198.703 83.339 197.138 79.996C193.691 72.63 198.651 72.999 103 73.001C21.114 73.003 17.37 73.083 14.42 74.881ZM51.455 115.451C48.442 118.463 48.452 117.552 50.935 162.132C51.998 181.231 53.292 196.672 53.927 197.86C56.492 202.652 64.512 203.575 68.545 199.541C70.46 197.626 71.004 196.033 71.02 192.291C71.051 185.179 67.973 125.038 67.379 121.134C66.209 113.445 56.813 110.092 51.455 115.451ZM97.656 114.129C93.362 116.625 93 120 93 157.496C93 195.303 93.358 198.512 97.85 200.916C101.527 202.884 106.513 202.21 109.364 199.36L112 196.723V157.936V119.149L109.411 116.073C107.374 113.651 106.042 113.002 103.161 113.026C101.147 113.043 98.67 113.539 97.656 114.129ZM142.589 116.073C141.091 117.853 140 120.386 140 122.083C140 125.683 137.284 176.416 136.491 187.619C135.945 195.34 136.047 195.898 138.547 198.869C140.729 201.463 141.898 201.996 145.4 201.996C150.054 201.996 153.622 199.527 154.472 195.718C154.744 194.496 155.642 180.671 156.467 164.996C157.291 149.321 158.227 132.627 158.546 127.898C159.103 119.65 159.018 119.171 156.474 116.148C154.252 113.507 153.121 112.996 149.5 112.996C145.901 112.996 144.744 113.511 142.589 116.073Z" fill="#0083BF"/>
</svg>
