<svg width="64" height="84" viewBox="0 0 64 84" fill="none" xmlns="http://www.w3.org/2000/svg">
<path fill-rule="evenodd" clip-rule="evenodd" d="M54.0897 0.306991C53.7912 0.470915 52.3873 1.37537 50.9698 2.31691C49.5522 3.25818 46.1673 5.48303 43.4476 7.26084C40.7278 9.03837 35.5084 12.4568 31.8489 14.857C28.1894 17.2572 22.7233 20.8401 19.7022 22.819C3.12087 33.6797 3.22885 33.6001 1.66619 36.1318C0.297772 38.349 -0.129246 40.054 0.0324458 42.6569C0.29723 46.9257 2.38295 49.9083 7.29556 53.0425C8.7063 53.9426 13.493 57.0724 17.9328 59.9977C25.4455 64.9476 27.9015 66.5585 36.4555 72.1459C38.246 73.3154 42.7631 76.2944 46.4934 78.7659C50.2237 81.2373 53.6686 83.4261 54.1488 83.6296C54.6333 83.8353 55.9662 84 57.145 84C59.0598 84 59.4119 83.913 60.7304 83.1136C64.3685 80.9078 65.1032 75.8679 62.263 72.6027C61.7964 72.0662 60.0717 70.7488 58.4304 69.6753C56.7891 68.6014 53.1266 66.1949 50.2915 64.3271C47.4565 62.4593 43.6405 59.9541 41.8114 58.7597C39.9823 57.5656 35.5011 54.6245 31.8532 52.2242C28.2054 49.824 23.1975 46.5324 20.725 44.9098L16.229 41.9597L19.2887 39.9825C22.6579 37.8049 35.8315 29.1837 41.2729 25.5948C43.1763 24.3396 46.1673 22.3757 47.9196 21.2313C58.6729 14.2065 61.5191 12.2697 62.2592 11.4738C63.4876 10.1523 64.0937 8.21602 63.9179 6.17446C63.7537 4.26873 63.2405 3.09698 62.0427 1.89278C60.5883 0.430548 59.3894 -0.00913057 56.8813 0.000143042C55.6442 0.00477985 54.3881 0.142793 54.0897 0.306991Z" fill="white"/>
</svg>
