<svg width="64" height="84" viewBox="0 0 64 84" fill="none" xmlns="http://www.w3.org/2000/svg">
<path fill-rule="evenodd" clip-rule="evenodd" d="M9.91034 83.693C10.2088 83.5291 11.6127 82.6246 13.0302 81.6831C14.4478 80.7418 17.8327 78.517 20.5524 76.7392C23.2722 74.9616 28.4916 71.5432 32.1511 69.143C35.8106 66.7428 41.2767 63.1599 44.2978 61.181C60.8791 50.3203 60.7712 50.3999 62.3338 47.8682C63.7022 45.651 64.1292 43.946 63.9676 41.3431C63.7028 37.0743 61.617 34.0917 56.7044 30.9575C55.2937 30.0574 50.507 26.9276 46.0672 24.0023C38.5545 19.0524 36.0985 17.4415 27.5445 11.8541C25.754 10.6846 21.2369 7.70556 17.5066 5.23414C13.7763 2.76272 10.3314 0.573876 9.85119 0.370402C9.36665 0.164746 8.03378 2.24887e-06 6.855 2.35192e-06C4.9402 2.51932e-06 4.58806 0.0870109 3.26956 0.886451C-0.368507 3.09221 -1.10318 8.13215 1.73701 11.3973C2.20364 11.9338 3.92827 13.2512 5.56961 14.3247C7.21094 15.3986 10.8734 17.8051 13.7085 19.6729C16.5435 21.5407 20.3595 24.0459 22.1886 25.2403C24.0177 26.4344 28.4989 29.3755 32.1468 31.7758C35.7946 34.176 40.8025 37.4676 43.275 39.0902L47.7709 42.0403L44.7113 44.0175C41.3421 46.1952 28.1685 54.8163 22.7271 58.4052C20.8237 59.6604 17.8327 61.6243 16.0804 62.7687C5.32707 69.7935 2.48091 71.7303 1.74082 72.5262C0.512393 73.8477 -0.0936761 75.784 0.0821234 77.8255C0.246257 79.7313 0.759545 80.903 1.95731 82.1072C3.41173 83.5695 4.61058 84.0091 7.11871 83.9999C8.35582 83.9952 9.61191 83.8572 9.91034 83.693Z" fill="white"/>
</svg>
