<svg width="153" height="153" viewBox="0 0 153 153" fill="none" xmlns="http://www.w3.org/2000/svg">
<path fill-rule="evenodd" clip-rule="evenodd" d="M129.585 0.824884C125.495 2.05288 118.006 8.52688 117.266 11.4729C116.709 13.6939 117.98 15.3619 127.496 24.9089C134.667 32.1019 139.102 35.8089 140.537 35.8089C143.591 35.8089 151.657 26.6049 152.489 22.1729C155.129 8.09788 143.004 -3.20312 129.585 0.824884ZM64.2574 63.2489C43.1594 84.3899 25.8974 102.389 25.8974 103.245C25.8974 105.735 46.8114 126.809 49.2834 126.809C50.7454 126.809 63.3684 114.844 89.7884 88.4179C123.389 54.8089 128.094 49.7309 127.571 47.6459C126.799 44.5719 106.749 24.8089 104.402 24.8089C103.386 24.8089 86.1084 41.3529 64.2574 63.2489ZM14.2874 118.574C12.7464 119.593 10.6514 123.872 5.3204 136.891L0.733398 148.089L2.7714 150.127L4.8094 152.166L15.1034 147.822C30.9624 141.131 34.8974 138.983 34.8974 137.021C34.8974 135.202 18.1074 117.797 16.3774 117.824C15.8384 117.833 14.8974 118.17 14.2874 118.574Z" fill="#0083BF"/>
</svg>
