<svg width="800" height="702" viewBox="0 0 800 702" fill="none" xmlns="http://www.w3.org/2000/svg">
<path fill-rule="evenodd" clip-rule="evenodd" d="M780.242 1.48054C751.723 14.8025 11.3687 378.62 8.82566 380.562C6.90066 382.032 4.05266 385.688 2.49566 388.685C0.073657 393.35 -0.264343 394.963 0.150657 399.885C0.701657 406.41 4.24766 413.38 8.57966 416.451C14.0497 420.329 215.244 515.533 216.28 514.734C217.796 513.562 605.278 195.171 611.826 189.717C619.22 183.557 548.645 255.106 394.011 410.539L265.696 539.516L268.511 540.951C270.059 541.739 327.656 569.216 396.503 602.01C517.952 659.859 521.854 661.634 527.503 661.613C534.84 661.585 540.498 659.082 544.796 653.963C547.379 650.887 574.677 582.971 672.962 335.095C741.648 161.867 798.363 18.4475 798.994 16.3845C802.397 5.27254 791.191 -3.63346 780.242 1.48054ZM265.826 638.942C265.826 687.611 265.95 691.398 267.653 694.573C268.658 696.447 271.014 698.802 272.888 699.807C279.4 703.299 281.333 702.595 300.076 689.885C357.39 651.02 374.573 639.058 373.984 638.434C373.38 637.792 286.573 596.164 272.076 589.564L265.826 586.719V638.942Z" fill="white"/>
</svg>
